<mxfile host="app.diagrams.net" modified="2024-01-23T10:12:51.053Z" agent="Mozilla/5.0 (Windows NT 10.0; Win64; x64) AppleWebKit/537.36 (KHTML, like Gecko) Chrome/120.0.0.0 Safari/537.36" etag="tNUDfwcWpIl91k3tvasX" version="22.1.21" type="device">
  <diagram name="Página-1" id="NczdbQnThDu-TaCLsWlg">
    <mxGraphModel dx="766" dy="1056" grid="1" gridSize="10" guides="1" tooltips="1" connect="1" arrows="1" fold="1" page="1" pageScale="1" pageWidth="827" pageHeight="1169" math="0" shadow="0">
      <root>
        <mxCell id="0" />
        <mxCell id="1" parent="0" />
        <mxCell id="kfGh2T8laVP57_3rUZCZ-1" value="INICIO" style="ellipse;whiteSpace=wrap;html=1;" vertex="1" parent="1">
          <mxGeometry x="305" y="50" width="120" height="80" as="geometry" />
        </mxCell>
        <mxCell id="kfGh2T8laVP57_3rUZCZ-2" value="" style="endArrow=none;html=1;rounded=0;entryX=0.5;entryY=1;entryDx=0;entryDy=0;" edge="1" parent="1" target="kfGh2T8laVP57_3rUZCZ-1">
          <mxGeometry width="50" height="50" relative="1" as="geometry">
            <mxPoint x="360" y="220" as="sourcePoint" />
            <mxPoint x="360" y="140" as="targetPoint" />
          </mxGeometry>
        </mxCell>
        <mxCell id="kfGh2T8laVP57_3rUZCZ-3" value="Escrever &quot;==========================================================\n&quot;" style="shape=parallelogram;perimeter=parallelogramPerimeter;whiteSpace=wrap;html=1;fixedSize=1;" vertex="1" parent="1">
          <mxGeometry x="90" y="160" width="550" height="90" as="geometry" />
        </mxCell>
        <mxCell id="kfGh2T8laVP57_3rUZCZ-5" value="Escrever&quot;Escolha a dificuldade:\n&quot;" style="shape=parallelogram;perimeter=parallelogramPerimeter;whiteSpace=wrap;html=1;fixedSize=1;" vertex="1" parent="1">
          <mxGeometry x="180" y="270" width="370" height="80" as="geometry" />
        </mxCell>
        <mxCell id="kfGh2T8laVP57_3rUZCZ-6" value="Escrever&quot;==========================================================\n&quot;" style="shape=parallelogram;perimeter=parallelogramPerimeter;whiteSpace=wrap;html=1;fixedSize=1;" vertex="1" parent="1">
          <mxGeometry x="95" y="380" width="540" height="60" as="geometry" />
        </mxCell>
        <mxCell id="kfGh2T8laVP57_3rUZCZ-7" value="&quot;1-Fácil(Não é penalizado ao errar)\n2-Difícil(A cada erro perde-se um ponto. A meta aumenta)\n&quot;" style="shape=parallelogram;perimeter=parallelogramPerimeter;whiteSpace=wrap;html=1;fixedSize=1;" vertex="1" parent="1">
          <mxGeometry x="80" y="460" width="570" height="60" as="geometry" />
        </mxCell>
        <mxCell id="kfGh2T8laVP57_3rUZCZ-11" value="" style="endArrow=none;html=1;rounded=0;entryX=0.5;entryY=1;entryDx=0;entryDy=0;exitX=0.5;exitY=0;exitDx=0;exitDy=0;" edge="1" parent="1" source="kfGh2T8laVP57_3rUZCZ-7" target="kfGh2T8laVP57_3rUZCZ-6">
          <mxGeometry width="50" height="50" relative="1" as="geometry">
            <mxPoint x="340" y="580" as="sourcePoint" />
            <mxPoint x="390" y="530" as="targetPoint" />
          </mxGeometry>
        </mxCell>
        <mxCell id="kfGh2T8laVP57_3rUZCZ-12" value="" style="endArrow=none;html=1;rounded=0;entryX=0.5;entryY=1;entryDx=0;entryDy=0;exitX=0.5;exitY=0;exitDx=0;exitDy=0;" edge="1" parent="1" source="kfGh2T8laVP57_3rUZCZ-5" target="kfGh2T8laVP57_3rUZCZ-3">
          <mxGeometry width="50" height="50" relative="1" as="geometry">
            <mxPoint x="340" y="580" as="sourcePoint" />
            <mxPoint x="390" y="530" as="targetPoint" />
          </mxGeometry>
        </mxCell>
        <mxCell id="kfGh2T8laVP57_3rUZCZ-13" value="" style="endArrow=none;html=1;rounded=0;entryX=0.5;entryY=1;entryDx=0;entryDy=0;exitX=0.5;exitY=0;exitDx=0;exitDy=0;" edge="1" parent="1" source="kfGh2T8laVP57_3rUZCZ-6" target="kfGh2T8laVP57_3rUZCZ-5">
          <mxGeometry width="50" height="50" relative="1" as="geometry">
            <mxPoint x="340" y="580" as="sourcePoint" />
            <mxPoint x="390" y="530" as="targetPoint" />
          </mxGeometry>
        </mxCell>
        <mxCell id="kfGh2T8laVP57_3rUZCZ-14" value="Escrever&quot;==========================================================\n&quot;" style="shape=parallelogram;perimeter=parallelogramPerimeter;whiteSpace=wrap;html=1;fixedSize=1;" vertex="1" parent="1">
          <mxGeometry x="95" y="540" width="540" height="60" as="geometry" />
        </mxCell>
        <mxCell id="kfGh2T8laVP57_3rUZCZ-15" value="" style="endArrow=none;html=1;rounded=0;entryX=0.5;entryY=1;entryDx=0;entryDy=0;exitX=0.5;exitY=0;exitDx=0;exitDy=0;" edge="1" parent="1" source="kfGh2T8laVP57_3rUZCZ-14" target="kfGh2T8laVP57_3rUZCZ-7">
          <mxGeometry width="50" height="50" relative="1" as="geometry">
            <mxPoint x="340" y="580" as="sourcePoint" />
            <mxPoint x="390" y="530" as="targetPoint" />
          </mxGeometry>
        </mxCell>
        <mxCell id="kfGh2T8laVP57_3rUZCZ-16" value="&lt;font style=&quot;font-size: 17px;&quot;&gt;leia(dif)&lt;/font&gt;" style="shape=parallelogram;perimeter=parallelogramPerimeter;whiteSpace=wrap;html=1;fixedSize=1;" vertex="1" parent="1">
          <mxGeometry x="180" y="630" width="370" height="50" as="geometry" />
        </mxCell>
        <mxCell id="kfGh2T8laVP57_3rUZCZ-17" value="" style="endArrow=none;html=1;rounded=0;entryX=0.5;entryY=1;entryDx=0;entryDy=0;exitX=0.5;exitY=0;exitDx=0;exitDy=0;" edge="1" parent="1" source="kfGh2T8laVP57_3rUZCZ-16" target="kfGh2T8laVP57_3rUZCZ-14">
          <mxGeometry width="50" height="50" relative="1" as="geometry">
            <mxPoint x="340" y="580" as="sourcePoint" />
            <mxPoint x="390" y="530" as="targetPoint" />
          </mxGeometry>
        </mxCell>
      </root>
    </mxGraphModel>
  </diagram>
</mxfile>
